<svg width="1440" height="291" viewBox="0 0 1440 291" fill="none" xmlns="http://www.w3.org/2000/svg">
<rect width="1440" height="291" fill="url(#paint0_radial_382_3254)"/>
<g clip-path="url(#clip0_382_3254)">
<path d="M136.579 187.279L135.134 188.713C134.267 189.573 133.126 190.007 131.993 190.007C130.852 190.007 129.718 189.573 128.851 188.713C127.117 186.992 127.117 184.198 128.851 182.477L133.971 177.396C133.348 179.551 133.445 181.911 134.297 183.985C134.808 185.22 135.593 186.352 136.579 187.279Z" fill="#F7F4F4"/>
<path d="M155.346 168.654L136.579 187.279C135.593 186.36 134.808 185.22 134.297 183.978C133.445 181.904 133.348 179.544 133.971 177.39L145.914 165.537L128.851 148.595C127.117 146.875 127.117 144.081 128.851 142.353C130.585 140.625 133.4 140.632 135.141 142.353L155.346 162.412C157.08 164.132 157.08 166.926 155.346 168.654Z" fill="white"/>
<path d="M135.134 128.53L130.511 133.118C128.747 133.471 126.887 133.552 125.08 133.588C122.538 133.64 119.997 133.633 117.448 133.596L128.851 122.294C130.585 120.574 133.4 120.574 135.141 122.294C136.882 124.015 136.868 126.809 135.134 128.53Z" fill="#F7F4F4"/>
<path d="M135.134 168.648C134.267 169.508 133.126 169.942 131.993 169.942C130.852 169.942 129.718 169.508 128.851 168.648L108.639 148.589C107.802 147.765 107.335 146.64 107.335 145.471C107.335 144.302 107.802 143.177 108.639 142.353L117.456 133.596C119.997 133.633 122.538 133.633 125.087 133.589C126.895 133.552 128.747 133.471 130.518 133.118L118.071 145.471L135.141 162.412C136.868 164.133 136.868 166.927 135.134 168.648Z" fill="white"/>
<path d="M123.495 170.919C123.361 171.133 123.161 171.302 122.961 171.464C121.761 172.434 120.405 173.236 118.908 173.603C117.338 173.986 115.671 173.875 114.078 174.052L108.632 168.647C106.898 166.927 106.898 164.133 108.632 162.405C110.366 160.684 113.181 160.684 114.922 162.405L123.495 170.919Z" fill="white"/>
<path d="M125.043 178.773C124.176 179.633 123.035 180.067 121.902 180.067C120.768 180.067 119.627 179.633 118.76 178.773L114.092 174.14C115.693 173.956 117.352 174.074 118.923 173.692C120.42 173.324 121.783 172.523 122.976 171.552C123.176 171.39 123.369 171.221 123.509 171.008L125.043 172.53C126.777 174.258 126.777 177.052 125.043 178.773Z" fill="#F7F4F4"/>
<path d="M155.354 148.596C154.487 149.456 153.346 149.89 152.212 149.89C151.071 149.89 149.938 149.456 149.071 148.596L143.018 142.588C142.944 141.809 143.032 141.022 143.314 140.287C143.721 139.235 144.485 138.36 145.211 137.5C145.937 136.632 146.663 135.721 146.959 134.625C147.004 134.463 147.033 134.294 147.056 134.125L155.346 142.353C157.088 144.081 157.088 146.875 155.354 148.596Z" fill="white"/>
<path d="M147.063 134.125C147.041 134.294 147.011 134.456 146.967 134.625C146.67 135.713 145.944 136.632 145.218 137.5C144.492 138.368 143.722 139.235 143.321 140.287C143.04 141.022 142.951 141.809 143.025 142.588L138.965 138.559C137.231 136.838 137.231 134.044 138.965 132.324C140.699 130.603 143.514 130.603 145.255 132.324L147.063 134.125Z" fill="#F7F4F4"/>
<path d="M141.624 129.714C143.568 129.714 145.144 128.15 145.144 126.221C145.144 124.292 143.568 122.729 141.624 122.729C139.681 122.729 138.105 124.292 138.105 126.221C138.105 128.15 139.681 129.714 141.624 129.714Z" fill="white"/>
<path d="M122.242 188.904C124.186 188.904 125.761 187.341 125.761 185.412C125.761 183.483 124.186 181.919 122.242 181.919C120.298 181.919 118.723 183.483 118.723 185.412C118.723 187.341 120.298 188.904 122.242 188.904Z" fill="white"/>
<path d="M159.554 159.912C162.01 159.912 164 157.937 164 155.501C164 153.064 162.01 151.089 159.554 151.089C157.099 151.089 155.109 153.064 155.109 155.501C155.109 157.937 157.099 159.912 159.554 159.912Z" fill="white"/>
<path d="M104.445 160.008C106.901 160.008 108.891 158.033 108.891 155.596C108.891 153.16 106.901 151.185 104.445 151.185C101.99 151.185 100 153.16 100 155.596C100 158.033 101.99 160.008 104.445 160.008Z" fill="white"/>
</g>
<path d="M611.292 164.069C610.142 164.069 609.076 163.862 608.095 163.448C607.114 163.034 606.255 162.459 605.519 161.723C604.783 160.972 604.208 160.105 603.794 159.124C603.395 158.143 603.196 157.085 603.196 155.95C603.196 154.815 603.403 153.757 603.817 152.776C604.231 151.795 604.806 150.936 605.542 150.2C606.278 149.449 607.137 148.866 608.118 148.452C609.115 148.038 610.188 147.831 611.338 147.831C612.488 147.831 613.554 148.038 614.535 148.452C615.532 148.851 616.39 149.418 617.111 150.154C617.847 150.89 618.414 151.749 618.813 152.73C619.227 153.696 619.434 154.754 619.434 155.904C619.434 157.054 619.227 158.127 618.813 159.124C618.399 160.105 617.816 160.972 617.065 161.723C616.329 162.459 615.47 163.034 614.489 163.448C613.508 163.862 612.442 164.069 611.292 164.069ZM611.269 163.218C612.312 163.218 613.27 163.034 614.144 162.666C615.018 162.283 615.785 161.761 616.444 161.102C617.119 160.443 617.64 159.668 618.008 158.779C618.376 157.874 618.56 156.916 618.56 155.904C618.56 154.877 618.376 153.926 618.008 153.052C617.655 152.178 617.149 151.411 616.49 150.752C615.846 150.093 615.079 149.587 614.19 149.234C613.316 148.866 612.365 148.682 611.338 148.682C610.295 148.682 609.329 148.866 608.44 149.234C607.551 149.602 606.776 150.123 606.117 150.798C605.473 151.457 604.967 152.224 604.599 153.098C604.231 153.972 604.047 154.923 604.047 155.95C604.047 156.962 604.231 157.913 604.599 158.802C604.967 159.676 605.473 160.45 606.117 161.125C606.776 161.784 607.543 162.298 608.417 162.666C609.306 163.034 610.257 163.218 611.269 163.218ZM611.499 160.734C610.579 160.734 609.759 160.535 609.038 160.136C608.317 159.722 607.75 159.155 607.336 158.434C606.922 157.713 606.715 156.885 606.715 155.95C606.715 155.015 606.922 154.187 607.336 153.466C607.75 152.745 608.317 152.186 609.038 151.787C609.759 151.373 610.579 151.166 611.499 151.166C612.281 151.166 612.986 151.327 613.615 151.649C614.259 151.956 614.773 152.385 615.156 152.937L614.167 153.673C613.845 153.228 613.454 152.899 612.994 152.684C612.534 152.469 612.028 152.362 611.476 152.362C610.817 152.362 610.226 152.515 609.705 152.822C609.199 153.113 608.793 153.527 608.486 154.064C608.179 154.601 608.026 155.229 608.026 155.95C608.026 156.671 608.179 157.299 608.486 157.836C608.793 158.373 609.199 158.794 609.705 159.101C610.226 159.392 610.817 159.538 611.476 159.538C612.028 159.538 612.534 159.431 612.994 159.216C613.454 159.001 613.845 158.672 614.167 158.227L615.156 158.94C614.773 159.507 614.259 159.952 613.615 160.274C612.986 160.581 612.281 160.734 611.499 160.734ZM633.678 164.138C632.482 164.138 631.332 163.946 630.228 163.563C629.14 163.164 628.296 162.658 627.698 162.045L628.365 160.734C628.933 161.286 629.692 161.754 630.642 162.137C631.608 162.505 632.62 162.689 633.678 162.689C634.69 162.689 635.511 162.566 636.139 162.321C636.783 162.06 637.251 161.715 637.542 161.286C637.849 160.857 638.002 160.381 638.002 159.86C638.002 159.231 637.818 158.725 637.45 158.342C637.098 157.959 636.63 157.66 636.047 157.445C635.465 157.215 634.821 157.016 634.115 156.847C633.41 156.678 632.705 156.502 631.999 156.318C631.294 156.119 630.642 155.858 630.044 155.536C629.462 155.214 628.986 154.792 628.618 154.271C628.266 153.734 628.089 153.037 628.089 152.178C628.089 151.381 628.296 150.652 628.71 149.993C629.14 149.318 629.791 148.782 630.665 148.383C631.539 147.969 632.659 147.762 634.023 147.762C634.928 147.762 635.825 147.892 636.714 148.153C637.604 148.398 638.37 148.743 639.014 149.188L638.439 150.545C637.749 150.085 637.013 149.748 636.231 149.533C635.465 149.318 634.721 149.211 634 149.211C633.034 149.211 632.237 149.341 631.608 149.602C630.98 149.863 630.512 150.215 630.205 150.66C629.914 151.089 629.768 151.58 629.768 152.132C629.768 152.761 629.945 153.267 630.297 153.65C630.665 154.033 631.141 154.332 631.723 154.547C632.321 154.762 632.973 154.953 633.678 155.122C634.384 155.291 635.081 155.475 635.771 155.674C636.477 155.873 637.121 156.134 637.703 156.456C638.301 156.763 638.777 157.177 639.129 157.698C639.497 158.219 639.681 158.902 639.681 159.745C639.681 160.527 639.467 161.255 639.037 161.93C638.608 162.589 637.949 163.126 637.059 163.54C636.185 163.939 635.058 164.138 633.678 164.138ZM647.967 164.115C646.801 164.115 645.751 163.854 644.816 163.333C643.896 162.796 643.167 162.068 642.631 161.148C642.094 160.213 641.826 159.147 641.826 157.951C641.826 156.74 642.094 155.674 642.631 154.754C643.167 153.834 643.896 153.113 644.816 152.592C645.736 152.071 646.786 151.81 647.967 151.81C649.163 151.81 650.221 152.071 651.141 152.592C652.076 153.113 652.804 153.834 653.326 154.754C653.862 155.674 654.131 156.74 654.131 157.951C654.131 159.147 653.862 160.213 653.326 161.148C652.804 162.068 652.076 162.796 651.141 163.333C650.205 163.854 649.147 164.115 647.967 164.115ZM647.967 162.666C648.841 162.666 649.615 162.474 650.29 162.091C650.964 161.692 651.493 161.14 651.877 160.435C652.275 159.714 652.475 158.886 652.475 157.951C652.475 157 652.275 156.172 651.877 155.467C651.493 154.762 650.964 154.217 650.29 153.834C649.615 153.435 648.848 153.236 647.99 153.236C647.131 153.236 646.364 153.435 645.69 153.834C645.015 154.217 644.478 154.762 644.08 155.467C643.681 156.172 643.482 157 643.482 157.951C643.482 158.886 643.681 159.714 644.08 160.435C644.478 161.14 645.015 161.692 645.69 162.091C646.364 162.474 647.123 162.666 647.967 162.666ZM657.741 164V150.407C657.741 149.334 658.055 148.467 658.684 147.808C659.312 147.149 660.217 146.819 661.398 146.819C661.858 146.819 662.302 146.88 662.732 147.003C663.161 147.126 663.521 147.317 663.813 147.578L663.261 148.797C663.031 148.598 662.762 148.452 662.456 148.36C662.149 148.253 661.819 148.199 661.467 148.199C660.777 148.199 660.248 148.391 659.88 148.774C659.512 149.157 659.328 149.725 659.328 150.476V152.316L659.374 153.075V164H657.741ZM655.579 153.282V151.925H663.054V153.282H655.579ZM665.262 164V151.925H666.895V164H665.262ZM666.09 149.257C665.752 149.257 665.469 149.142 665.239 148.912C665.009 148.682 664.894 148.406 664.894 148.084C664.894 147.762 665.009 147.494 665.239 147.279C665.469 147.049 665.752 146.934 666.09 146.934C666.427 146.934 666.711 147.041 666.941 147.256C667.171 147.471 667.286 147.739 667.286 148.061C667.286 148.398 667.171 148.682 666.941 148.912C666.726 149.142 666.442 149.257 666.09 149.257ZM679.047 164V161.332L678.978 160.895V156.433C678.978 155.406 678.687 154.616 678.104 154.064C677.537 153.512 676.686 153.236 675.551 153.236C674.769 153.236 674.025 153.366 673.32 153.627C672.615 153.888 672.017 154.233 671.526 154.662L670.79 153.443C671.403 152.922 672.139 152.523 672.998 152.247C673.857 151.956 674.761 151.81 675.712 151.81C677.276 151.81 678.48 152.201 679.323 152.983C680.182 153.75 680.611 154.923 680.611 156.502V164H679.047ZM674.884 164.115C673.979 164.115 673.19 163.969 672.515 163.678C671.856 163.371 671.35 162.957 670.997 162.436C670.644 161.899 670.468 161.286 670.468 160.596C670.468 159.967 670.614 159.4 670.905 158.894C671.212 158.373 671.702 157.959 672.377 157.652C673.067 157.33 673.987 157.169 675.137 157.169H679.3V158.388H675.183C674.018 158.388 673.205 158.595 672.745 159.009C672.3 159.423 672.078 159.937 672.078 160.55C672.078 161.24 672.346 161.792 672.883 162.206C673.42 162.62 674.171 162.827 675.137 162.827C676.057 162.827 676.847 162.62 677.506 162.206C678.181 161.777 678.671 161.163 678.978 160.366L679.346 161.493C679.039 162.29 678.503 162.927 677.736 163.402C676.985 163.877 676.034 164.115 674.884 164.115ZM691.411 164V147.9H692.814L700.174 160.458H699.438L706.729 147.9H708.132V164H706.499V150.453H706.89L700.174 161.953H699.369L692.607 150.453H693.044V164H691.411ZM718.024 164.115C716.997 164.115 716.1 163.923 715.333 163.54C714.566 163.157 713.968 162.582 713.539 161.815C713.125 161.048 712.918 160.09 712.918 158.94V151.925H714.551V158.756C714.551 160.044 714.865 161.018 715.494 161.677C716.138 162.321 717.035 162.643 718.185 162.643C719.028 162.643 719.757 162.474 720.37 162.137C720.999 161.784 721.474 161.278 721.796 160.619C722.133 159.96 722.302 159.17 722.302 158.25V151.925H723.935V164H722.371V160.688L722.624 161.286C722.241 162.175 721.643 162.873 720.83 163.379C720.033 163.87 719.097 164.115 718.024 164.115ZM720.485 149.51C720.224 149.51 719.994 149.418 719.795 149.234C719.596 149.05 719.496 148.812 719.496 148.521C719.496 148.23 719.596 147.992 719.795 147.808C719.994 147.624 720.224 147.532 720.485 147.532C720.761 147.532 720.991 147.624 721.175 147.808C721.374 147.992 721.474 148.23 721.474 148.521C721.474 148.812 721.374 149.05 721.175 149.234C720.991 149.418 720.761 149.51 720.485 149.51ZM716.391 149.51C716.115 149.51 715.877 149.418 715.678 149.234C715.494 149.05 715.402 148.812 715.402 148.521C715.402 148.23 715.494 147.992 715.678 147.808C715.877 147.624 716.115 147.532 716.391 147.532C716.652 147.532 716.882 147.624 717.081 147.808C717.28 147.992 717.38 148.23 717.38 148.521C717.38 148.812 717.28 149.05 717.081 149.234C716.882 149.418 716.652 149.51 716.391 149.51ZM728.486 164V146.934H730.119V164H728.486ZM734.663 164V146.934H736.296V164H734.663ZM745.969 164.115C744.711 164.115 743.607 163.854 742.657 163.333C741.706 162.796 740.962 162.068 740.426 161.148C739.889 160.213 739.621 159.147 739.621 157.951C739.621 156.755 739.874 155.697 740.38 154.777C740.901 153.857 741.606 153.136 742.496 152.615C743.4 152.078 744.412 151.81 745.532 151.81C746.666 151.81 747.671 152.071 748.545 152.592C749.434 153.098 750.132 153.819 750.638 154.754C751.144 155.674 751.397 156.74 751.397 157.951C751.397 158.028 751.389 158.112 751.374 158.204C751.374 158.281 751.374 158.365 751.374 158.457H740.863V157.238H750.5L749.856 157.721C749.856 156.847 749.664 156.073 749.281 155.398C748.913 154.708 748.407 154.171 747.763 153.788C747.119 153.405 746.375 153.213 745.532 153.213C744.704 153.213 743.96 153.405 743.301 153.788C742.641 154.171 742.128 154.708 741.76 155.398C741.392 156.088 741.208 156.878 741.208 157.767V158.02C741.208 158.94 741.407 159.753 741.806 160.458C742.22 161.148 742.787 161.692 743.508 162.091C744.244 162.474 745.079 162.666 746.015 162.666C746.751 162.666 747.433 162.536 748.062 162.275C748.706 162.014 749.258 161.616 749.718 161.079L750.638 162.137C750.101 162.781 749.426 163.272 748.614 163.609C747.816 163.946 746.935 164.115 745.969 164.115ZM754.72 164V151.925H756.284V155.214L756.123 154.639C756.461 153.719 757.028 153.021 757.825 152.546C758.623 152.055 759.612 151.81 760.792 151.81V153.397C760.731 153.397 760.67 153.397 760.608 153.397C760.547 153.382 760.486 153.374 760.424 153.374C759.152 153.374 758.155 153.765 757.434 154.547C756.714 155.314 756.353 156.41 756.353 157.836V164H754.72ZM768.591 164V162.827L775.284 156.272C775.898 155.674 776.358 155.153 776.664 154.708C776.971 154.248 777.178 153.819 777.285 153.42C777.393 153.021 777.446 152.646 777.446 152.293C777.446 151.358 777.124 150.622 776.48 150.085C775.852 149.548 774.916 149.28 773.674 149.28C772.724 149.28 771.88 149.426 771.144 149.717C770.424 150.008 769.803 150.461 769.281 151.074L768.108 150.062C768.737 149.326 769.542 148.759 770.523 148.36C771.505 147.961 772.601 147.762 773.812 147.762C774.901 147.762 775.844 147.938 776.641 148.291C777.439 148.628 778.052 149.127 778.481 149.786C778.926 150.445 779.148 151.22 779.148 152.109C779.148 152.63 779.072 153.144 778.918 153.65C778.78 154.156 778.52 154.693 778.136 155.26C777.768 155.812 777.224 156.441 776.503 157.146L770.362 163.172L769.902 162.528H779.884V164H768.591ZM788.335 164.138C787.093 164.138 785.989 163.816 785.023 163.172C784.057 162.513 783.298 161.577 782.746 160.366C782.194 159.139 781.918 157.667 781.918 155.95C781.918 154.233 782.194 152.768 782.746 151.557C783.298 150.33 784.057 149.395 785.023 148.751C785.989 148.092 787.093 147.762 788.335 147.762C789.577 147.762 790.681 148.092 791.647 148.751C792.613 149.395 793.372 150.33 793.924 151.557C794.491 152.768 794.775 154.233 794.775 155.95C794.775 157.667 794.491 159.139 793.924 160.366C793.372 161.577 792.613 162.513 791.647 163.172C790.681 163.816 789.577 164.138 788.335 164.138ZM788.335 162.62C789.285 162.62 790.113 162.367 790.819 161.861C791.524 161.34 792.076 160.588 792.475 159.607C792.873 158.61 793.073 157.391 793.073 155.95C793.073 154.509 792.873 153.297 792.475 152.316C792.076 151.319 791.524 150.568 790.819 150.062C790.113 149.541 789.285 149.28 788.335 149.28C787.415 149.28 786.594 149.541 785.874 150.062C785.153 150.568 784.593 151.319 784.195 152.316C783.796 153.297 783.597 154.509 783.597 155.95C783.597 157.391 783.796 158.61 784.195 159.607C784.593 160.588 785.153 161.34 785.874 161.861C786.594 162.367 787.415 162.62 788.335 162.62ZM796.847 164V162.827L803.54 156.272C804.154 155.674 804.614 155.153 804.92 154.708C805.227 154.248 805.434 153.819 805.541 153.42C805.649 153.021 805.702 152.646 805.702 152.293C805.702 151.358 805.38 150.622 804.736 150.085C804.108 149.548 803.172 149.28 801.93 149.28C800.98 149.28 800.136 149.426 799.4 149.717C798.68 150.008 798.059 150.461 797.537 151.074L796.364 150.062C796.993 149.326 797.798 148.759 798.779 148.36C799.761 147.961 800.857 147.762 802.068 147.762C803.157 147.762 804.1 147.938 804.897 148.291C805.695 148.628 806.308 149.127 806.737 149.786C807.182 150.445 807.404 151.22 807.404 152.109C807.404 152.63 807.328 153.144 807.174 153.65C807.036 154.156 806.776 154.693 806.392 155.26C806.024 155.812 805.48 156.441 804.759 157.146L798.618 163.172L798.158 162.528H808.14V164H796.847ZM809.919 164V162.827L816.612 156.272C817.226 155.674 817.686 155.153 817.992 154.708C818.299 154.248 818.506 153.819 818.613 153.42C818.721 153.021 818.774 152.646 818.774 152.293C818.774 151.358 818.452 150.622 817.808 150.085C817.18 149.548 816.244 149.28 815.002 149.28C814.052 149.28 813.208 149.426 812.472 149.717C811.752 150.008 811.131 150.461 810.609 151.074L809.436 150.062C810.065 149.326 810.87 148.759 811.851 148.36C812.833 147.961 813.929 147.762 815.14 147.762C816.229 147.762 817.172 147.938 817.969 148.291C818.767 148.628 819.38 149.127 819.809 149.786C820.254 150.445 820.476 151.22 820.476 152.109C820.476 152.63 820.4 153.144 820.246 153.65C820.108 154.156 819.848 154.693 819.464 155.26C819.096 155.812 818.552 156.441 817.831 157.146L811.69 163.172L811.23 162.528H821.212V164H809.919Z" fill="white"/>
<path d="M1181 141.37C1172.71 141.37 1166 148.083 1166 156.37C1166 159.519 1166.99 162.589 1168.83 165.143C1170.67 167.698 1173.27 169.608 1176.26 170.602C1177.01 170.733 1177.29 170.283 1177.29 169.888C1177.29 169.533 1177.27 168.352 1177.27 167.095C1173.5 167.79 1172.53 166.177 1172.23 165.333C1172.06 164.901 1171.33 163.57 1170.69 163.213C1170.16 162.933 1169.41 162.238 1170.67 162.22C1171.85 162.201 1172.69 163.308 1172.98 163.758C1174.33 166.026 1176.48 165.388 1177.34 164.995C1177.48 164.02 1177.87 163.365 1178.3 162.99C1174.96 162.615 1171.48 161.32 1171.48 155.583C1171.48 153.951 1172.06 152.602 1173.01 151.551C1172.86 151.176 1172.34 149.638 1173.16 147.576C1173.16 147.576 1174.42 147.183 1177.29 149.115C1178.51 148.776 1179.77 148.605 1181.04 148.608C1182.31 148.608 1183.59 148.776 1184.79 149.113C1187.66 147.163 1188.91 147.577 1188.91 147.577C1189.74 149.64 1189.21 151.177 1189.06 151.552C1190.02 152.602 1190.6 153.933 1190.6 155.583C1190.6 161.34 1187.09 162.615 1183.76 162.99C1184.3 163.458 1184.77 164.358 1184.77 165.765C1184.77 167.77 1184.75 169.383 1184.75 169.89C1184.75 170.283 1185.03 170.751 1185.78 170.601C1188.76 169.595 1191.35 167.682 1193.18 165.129C1195.01 162.576 1196 159.513 1196 156.37C1196 148.083 1189.29 141.37 1181 141.37Z" fill="white"/>
<path d="M1253 141C1244.7 141 1238 147.7 1238 156C1238 164.3 1244.7 171 1253 171C1261.3 171 1268 164.3 1268 156C1268 147.7 1261.3 141 1253 141ZM1262 161.6C1262 162.1 1261.6 162.5 1261.1 162.5H1245C1244.4 162.5 1244 162 1244 161.5V151.8L1253 156.5L1262 151.8V161.6ZM1262 150.7L1253 155.4L1244 150.7V150.5C1244 150 1244.4 149.5 1245 149.5H1261C1261.6 149.5 1262 150 1262 150.5V150.7Z" fill="white"/>
<g clip-path="url(#clip1_382_3254)">
<path d="M1325 141C1316.7 141 1310 147.7 1310 156C1310 164.3 1316.7 171 1325 171C1333.3 171 1340 164.3 1340 156C1340 147.7 1333.3 141 1325 141ZM1316.7 146.5C1317.1 146.2 1317.6 146 1318 146C1318.4 146 1319 146.2 1319.3 146.5C1319.6 146.9 1319.8 147.3 1319.8 147.8C1319.8 148.3 1319.6 148.8 1319.2 149.1C1319 149.5 1318.5 149.7 1318 149.7C1317.5 149.7 1317 149.5 1316.7 149.2C1316.4 148.8 1316.2 148.3 1316.2 147.8C1316.2 147.3 1316.4 146.9 1316.7 146.5ZM1319.9 162.6H1316.2V151.1H1319.9V162.6ZM1333.8 162.6H1330.1V156.5C1330.1 152.8 1325.7 153.1 1325.7 156.5V162.6H1322.1V151.1H1325.8V152.6C1327.3 149.8 1333.9 149.6 1333.9 155.3V162.6H1333.8Z" fill="white"/>
</g>
<path d="M675.824 219V207.8H677.008V219H675.824ZM690.908 210.52C691.591 210.52 692.183 210.653 692.684 210.92C693.196 211.176 693.591 211.571 693.868 212.104C694.156 212.637 694.3 213.309 694.3 214.12V219H693.164V214.232C693.164 213.347 692.951 212.68 692.524 212.232C692.108 211.773 691.516 211.544 690.748 211.544C690.172 211.544 689.671 211.667 689.244 211.912C688.828 212.147 688.503 212.493 688.268 212.952C688.044 213.4 687.932 213.944 687.932 214.584V219H686.796V214.232C686.796 213.347 686.583 212.68 686.156 212.232C685.729 211.773 685.132 211.544 684.364 211.544C683.799 211.544 683.303 211.667 682.876 211.912C682.449 212.147 682.119 212.493 681.884 212.952C681.66 213.4 681.548 213.944 681.548 214.584V219H680.412V210.6H681.5V212.872L681.324 212.472C681.58 211.864 681.991 211.389 682.556 211.048C683.132 210.696 683.809 210.52 684.588 210.52C685.409 210.52 686.108 210.728 686.684 211.144C687.26 211.549 687.633 212.163 687.804 212.984L687.356 212.808C687.601 212.125 688.033 211.576 688.652 211.16C689.281 210.733 690.033 210.52 690.908 210.52ZM701.717 219.08C700.992 219.08 700.336 218.915 699.749 218.584C699.162 218.243 698.693 217.757 698.341 217.128C698 216.488 697.829 215.709 697.829 214.792C697.829 213.875 698 213.101 698.341 212.472C698.682 211.832 699.146 211.347 699.733 211.016C700.32 210.685 700.981 210.52 701.717 210.52C702.517 210.52 703.232 210.701 703.861 211.064C704.501 211.416 705.002 211.917 705.365 212.568C705.728 213.208 705.909 213.949 705.909 214.792C705.909 215.645 705.728 216.392 705.365 217.032C705.002 217.672 704.501 218.173 703.861 218.536C703.232 218.899 702.517 219.08 701.717 219.08ZM697.381 222.104V210.6H698.469V213.128L698.357 214.808L698.517 216.504V222.104H697.381ZM701.637 218.072C702.234 218.072 702.768 217.939 703.237 217.672C703.706 217.395 704.08 217.011 704.357 216.52C704.634 216.019 704.773 215.443 704.773 214.792C704.773 214.141 704.634 213.571 704.357 213.08C704.08 212.589 703.706 212.205 703.237 211.928C702.768 211.651 702.234 211.512 701.637 211.512C701.04 211.512 700.501 211.651 700.021 211.928C699.552 212.205 699.178 212.589 698.901 213.08C698.634 213.571 698.501 214.141 698.501 214.792C698.501 215.443 698.634 216.019 698.901 216.52C699.178 217.011 699.552 217.395 700.021 217.672C700.501 217.939 701.04 218.072 701.637 218.072ZM708.225 219V210.6H709.313V212.888L709.201 212.488C709.435 211.848 709.83 211.363 710.385 211.032C710.939 210.691 711.627 210.52 712.449 210.52V211.624C712.406 211.624 712.363 211.624 712.321 211.624C712.278 211.613 712.235 211.608 712.193 211.608C711.307 211.608 710.614 211.88 710.113 212.424C709.611 212.957 709.361 213.72 709.361 214.712V219H708.225ZM718.011 219.08C717.137 219.08 716.369 218.899 715.707 218.536C715.046 218.163 714.529 217.656 714.155 217.016C713.782 216.365 713.595 215.624 713.595 214.792C713.595 213.96 713.771 213.224 714.123 212.584C714.486 211.944 714.977 211.443 715.595 211.08C716.225 210.707 716.929 210.52 717.707 210.52C718.497 210.52 719.195 210.701 719.803 211.064C720.422 211.416 720.907 211.917 721.259 212.568C721.611 213.208 721.787 213.949 721.787 214.792C721.787 214.845 721.782 214.904 721.771 214.968C721.771 215.021 721.771 215.08 721.771 215.144H714.459V214.296H721.163L720.715 214.632C720.715 214.024 720.582 213.485 720.315 213.016C720.059 212.536 719.707 212.163 719.259 211.896C718.811 211.629 718.294 211.496 717.707 211.496C717.131 211.496 716.614 211.629 716.155 211.896C715.697 212.163 715.339 212.536 715.083 213.016C714.827 213.496 714.699 214.045 714.699 214.664V214.84C714.699 215.48 714.838 216.045 715.115 216.536C715.403 217.016 715.798 217.395 716.299 217.672C716.811 217.939 717.393 218.072 718.043 218.072C718.555 218.072 719.03 217.981 719.467 217.8C719.915 217.619 720.299 217.341 720.619 216.968L721.259 217.704C720.886 218.152 720.417 218.493 719.851 218.728C719.297 218.963 718.683 219.08 718.011 219.08ZM726.356 219.08C725.662 219.08 725.006 218.984 724.388 218.792C723.769 218.589 723.284 218.339 722.932 218.04L723.444 217.144C723.785 217.4 724.222 217.624 724.756 217.816C725.289 217.997 725.849 218.088 726.436 218.088C727.236 218.088 727.812 217.965 728.164 217.72C728.516 217.464 728.692 217.128 728.692 216.712C728.692 216.403 728.59 216.163 728.388 215.992C728.196 215.811 727.94 215.677 727.62 215.592C727.3 215.496 726.942 215.416 726.548 215.352C726.153 215.288 725.758 215.213 725.364 215.128C724.98 215.043 724.628 214.92 724.308 214.76C723.988 214.589 723.726 214.36 723.524 214.072C723.332 213.784 723.236 213.4 723.236 212.92C723.236 212.461 723.364 212.051 723.62 211.688C723.876 211.325 724.249 211.043 724.74 210.84C725.241 210.627 725.849 210.52 726.564 210.52C727.108 210.52 727.652 210.595 728.196 210.744C728.74 210.883 729.188 211.069 729.54 211.304L729.044 212.216C728.67 211.96 728.27 211.779 727.844 211.672C727.417 211.555 726.99 211.496 726.564 211.496C725.806 211.496 725.246 211.629 724.884 211.896C724.532 212.152 724.356 212.483 724.356 212.888C724.356 213.208 724.452 213.459 724.644 213.64C724.846 213.821 725.108 213.965 725.428 214.072C725.758 214.168 726.116 214.248 726.5 214.312C726.894 214.376 727.284 214.456 727.668 214.552C728.062 214.637 728.42 214.76 728.74 214.92C729.07 215.069 729.332 215.288 729.524 215.576C729.726 215.853 729.828 216.221 729.828 216.68C729.828 217.171 729.689 217.597 729.412 217.96C729.145 218.312 728.75 218.589 728.228 218.792C727.716 218.984 727.092 219.08 726.356 219.08ZM734.168 219.08C733.475 219.08 732.819 218.984 732.2 218.792C731.581 218.589 731.096 218.339 730.744 218.04L731.256 217.144C731.597 217.4 732.035 217.624 732.568 217.816C733.101 217.997 733.661 218.088 734.248 218.088C735.048 218.088 735.624 217.965 735.976 217.72C736.328 217.464 736.504 217.128 736.504 216.712C736.504 216.403 736.403 216.163 736.2 215.992C736.008 215.811 735.752 215.677 735.432 215.592C735.112 215.496 734.755 215.416 734.36 215.352C733.965 215.288 733.571 215.213 733.176 215.128C732.792 215.043 732.44 214.92 732.12 214.76C731.8 214.589 731.539 214.36 731.336 214.072C731.144 213.784 731.048 213.4 731.048 212.92C731.048 212.461 731.176 212.051 731.432 211.688C731.688 211.325 732.061 211.043 732.552 210.84C733.053 210.627 733.661 210.52 734.376 210.52C734.92 210.52 735.464 210.595 736.008 210.744C736.552 210.883 737 211.069 737.352 211.304L736.856 212.216C736.483 211.96 736.083 211.779 735.656 211.672C735.229 211.555 734.803 211.496 734.376 211.496C733.619 211.496 733.059 211.629 732.696 211.896C732.344 212.152 732.168 212.483 732.168 212.888C732.168 213.208 732.264 213.459 732.456 213.64C732.659 213.821 732.92 213.965 733.24 214.072C733.571 214.168 733.928 214.248 734.312 214.312C734.707 214.376 735.096 214.456 735.48 214.552C735.875 214.637 736.232 214.76 736.552 214.92C736.883 215.069 737.144 215.288 737.336 215.576C737.539 215.853 737.64 216.221 737.64 216.68C737.64 217.171 737.501 217.597 737.224 217.96C736.957 218.312 736.563 218.589 736.04 218.792C735.528 218.984 734.904 219.08 734.168 219.08ZM743.197 219.08C742.482 219.08 741.858 218.947 741.325 218.68C740.791 218.413 740.375 218.013 740.077 217.48C739.789 216.947 739.645 216.28 739.645 215.48V210.6H740.781V215.352C740.781 216.248 740.999 216.925 741.437 217.384C741.885 217.832 742.509 218.056 743.309 218.056C743.895 218.056 744.402 217.939 744.829 217.704C745.266 217.459 745.597 217.107 745.821 216.648C746.055 216.189 746.173 215.64 746.173 215V210.6H747.309V219H746.221V216.696L746.397 217.112C746.13 217.731 745.714 218.216 745.149 218.568C744.594 218.909 743.943 219.08 743.197 219.08ZM760.971 210.52C761.653 210.52 762.245 210.653 762.747 210.92C763.259 211.176 763.653 211.571 763.931 212.104C764.219 212.637 764.363 213.309 764.363 214.12V219H763.227V214.232C763.227 213.347 763.013 212.68 762.587 212.232C762.171 211.773 761.579 211.544 760.811 211.544C760.235 211.544 759.733 211.667 759.307 211.912C758.891 212.147 758.565 212.493 758.331 212.952C758.107 213.4 757.995 213.944 757.995 214.584V219H756.859V214.232C756.859 213.347 756.645 212.68 756.219 212.232C755.792 211.773 755.195 211.544 754.427 211.544C753.861 211.544 753.365 211.667 752.939 211.912C752.512 212.147 752.181 212.493 751.947 212.952C751.723 213.4 751.611 213.944 751.611 214.584V219H750.475V210.6H751.563V212.872L751.387 212.472C751.643 211.864 752.053 211.389 752.619 211.048C753.195 210.696 753.872 210.52 754.651 210.52C755.472 210.52 756.171 210.728 756.747 211.144C757.323 211.549 757.696 212.163 757.867 212.984L757.419 212.808C757.664 212.125 758.096 211.576 758.715 211.16C759.344 210.733 760.096 210.52 760.971 210.52Z" fill="white"/>
<defs>
<radialGradient id="paint0_radial_382_3254" cx="0" cy="0" r="1" gradientUnits="userSpaceOnUse" gradientTransform="translate(415 -362) rotate(33.4248) scale(1228.12 1170.03)">
<stop offset="0.0625" stop-color="#FF5959"/>
<stop offset="0.515625" stop-color="#FF5959"/>
<stop offset="1" stop-color="#DE0000"/>
</radialGradient>
<clipPath id="clip0_382_3254">
<rect width="64" height="69" fill="white" transform="translate(100 121)"/>
</clipPath>
<clipPath id="clip1_382_3254">
<rect width="30" height="30" fill="white" transform="translate(1310 141)"/>
</clipPath>
</defs>
</svg>
