<svg xmlns="http://www.w3.org/2000/svg" xmlns:xlink="http://www.w3.org/1999/xlink" width="500" zoomAndPan="magnify" viewBox="0 0 375 374.999991" height="500" preserveAspectRatio="xMidYMid meet" version="1.0"><defs><g/></defs><rect x="-37.5" width="450" fill="#ffffff" y="-37.499999" height="449.999989" fill-opacity="1"/><rect x="-37.5" width="450" fill="#ffffff" y="-37.499999" height="449.999989" fill-opacity="1"/><g fill="#ff5959" fill-opacity="1"><g transform="translate(19.183212, 218.691316)"><g><path d="M 193.609375 -213.234375 C 129.578125 -213.234375 110.234375 -123.53125 104.5 -54.0625 L 35.640625 -213.234375 L 10.578125 -213.234375 L 10.578125 0 L 12.390625 0 L 12.390625 -207.796875 L 20.84375 -187.859375 L 102.390625 0 L 105.40625 0 C 105.40625 -54.96875 110.234375 -180.609375 170.640625 -205.984375 L 170.640625 0 L 193.609375 0 Z M 193.609375 -213.234375 "/></g></g></g><g fill="#ff5959" fill-opacity="1"><g transform="translate(180.464421, 367.349354)"><g><path d="M 28.984375 -180.625 C 28.984375 -142.203125 64.359375 -123 100.421875 -106.828125 C 178.9375 -70.765625 185 -36.0625 162.765625 -17.515625 C 120.296875 18.203125 44.8125 -11.125 11.796875 -94.6875 L 11.796875 -47.859375 C 49.875 1.015625 127.046875 14.484375 165.453125 -14.828125 C 177.59375 -24.59375 185 -38.75 185 -56.953125 C 185 -96.71875 149.953125 -115.921875 113.234375 -131.765625 C 31 -170.171875 28.3125 -207.25 54.59375 -224.4375 C 85.59375 -246 146.921875 -240.9375 180.953125 -171.859375 L 180.953125 -207.25 C 151.984375 -254.09375 28.984375 -255.765625 28.984375 -180.625 Z M 28.984375 -180.625 "/></g></g></g></svg>